# xmcd
#
# Track frame offsets:
#	150
#	10755
#	25835
#	49810
#	64975
#	76700
#	90437
#	103430
#	110832
#	127315
#	144980
#	158425
#
# Disc length: 2327 seconds
#
# Revision: 0
# Processed by: cddbd v1.4PL0 Copyright (c) Steve Scherf et al.
# Submitted via: EasyCDDAExtractor 4.6.9.1
#
DISCID=9a09150c
DTITLE=Maxine Howard - Blues shoes with no strings
DYEAR=1900
DGENRE=Blues
TTITLE0=talk about my baby
TTITLE1=somebody help me
TTITLE2=the thrill is gone
TTITLE3=swing low sweet chariot
TTITLE4=Frauenlobstrasse blues
TTITLE5=that pleases me
TTITLE6=you´ve played out baby
TTITLE7=tribute to satchmo
TTITLE8=blues shoes with no strings
TTITLE9=summertime
TTITLE10=down by the riverside
TTITLE11=blues dreams for Maxine
EXTD=
EXTT0=
EXTT1=
EXTT2=
EXTT3=
EXTT4=
EXTT5=
EXTT6=
EXTT7=
EXTT8=
EXTT9=
EXTT10=
EXTT11=
PLAYORDER=
